<?xml version="1.0" encoding="UTF-8" standalone="no"?><!DOCTYPE svg PUBLIC "-//W3C//DTD SVG 1.1//EN" "http://www.w3.org/Graphics/SVG/1.1/DTD/svg11.dtd"><svg width="100%" height="100%" viewBox="0 0 5221 3500" version="1.1" xmlns="http://www.w3.org/2000/svg" xmlns:xlink="http://www.w3.org/1999/xlink" xml:space="preserve" xmlns:serif="http://www.serif.com/" style="fill-rule:evenodd;clip-rule:evenodd;stroke-linejoin:round;stroke-miterlimit:2;"><rect id="Artboard1" x="0" y="0" width="5220.96" height="3499.46" style="fill:none;"/><clipPath id="_clip1"><rect id="Artboard11" serif:id="Artboard1" x="0" y="0" width="5220.96" height="3499.46"/></clipPath><g clip-path="url(#_clip1)"><g id="Слой_2"><g id="Layer_1"><path d="M4875,2454.17c96.513,-220.857 146.173,-459.352 145.833,-700.375c0,-966.292 -783.333,-1749.62 -1749.58,-1749.62c-263.453,-0.403 -523.597,58.966 -760.792,173.625c-237.165,-114.657 -497.282,-174.026 -760.708,-173.625c-966.417,-0 -1749.75,783.333 -1749.75,1749.75c0,966.416 783.333,1749.71 1749.75,1749.71c263.423,0.414 523.539,-58.941 760.708,-173.583c607.75,292.747 1332.81,209.447 1858.33,-213.5c-12.141,-44.782 -18.292,-90.977 -18.292,-137.376c-0,-287.817 236.683,-524.725 524.5,-524.999Zm-2934.67,435.666c-62.987,10.466 -126.732,15.706 -190.583,15.667c-636,0 -1151.62,-515.583 -1151.62,-1151.58c0,-636 515.625,-1151.62 1151.62,-1151.62c631.557,0.398 1151.02,520.193 1151.02,1151.75c0,559.918 -408.301,1042.75 -960.44,1135.75l0,0.041Zm1330.92,15.667c-63.881,0.009 -127.653,-5.259 -190.667,-15.75c556.106,-651.441 556.106,-1620.27 0,-2271.71c63.014,-10.491 126.786,-15.759 190.667,-15.75c636.042,-0 1151.62,515.625 1151.62,1151.62c0,636 -515.583,1151.58 -1151.62,1151.58Z" style="fill:#f2f2f2;fill-rule:nonzero;"/><path d="M4875.38,2633.67c-33.882,-0.055 -67.585,4.93 -100,14.791c-141.714,42.909 -240.77,172.412 -245.083,320.417l-0,10.125c-0,189.444 155.889,345.333 345.333,345.333c189.444,0 345.333,-155.889 345.333,-345.333c0,-189.444 -155.889,-345.333 -345.333,-345.333l-0.25,-0Z" style="fill:#f2f2f2;fill-rule:nonzero;"/></g></g></g></svg>