<svg xmlns="http://www.w3.org/2000/svg" viewBox="0 0 1252.97 1007.63"><defs><style>.cls-1{fill:#f2f2f2;}</style></defs><g id="Слой_2" data-name="Слой 2"><g id="Layer_1" data-name="Layer 1"><path class="cls-1" d="M1170,588a418.3,418.3,0,0,0,35-168.09C1205,188,1017,0,785.1,0A418.07,418.07,0,0,0,602.51,41.67,418,418,0,0,0,419.94,0C188,0,0,188,0,419.94S188,839.87,419.94,839.87a418,418,0,0,0,182.57-41.66,420.38,420.38,0,0,0,446-51.24A126,126,0,0,1,1170,588ZM465.68,692.56a278,278,0,0,1-45.74,3.76c-152.64,0-276.39-123.74-276.39-276.38S267.3,143.55,419.94,143.55a276.42,276.42,0,0,1,45.74,549Zm319.42,3.76a278.4,278.4,0,0,1-45.76-3.78,419.87,419.87,0,0,0,0-545.21,278.4,278.4,0,0,1,45.76-3.78c152.65,0,276.39,123.75,276.39,276.39S937.75,696.32,785.1,696.32Z"/><path class="cls-1" d="M1170.09,631.08a82,82,0,0,0-24,3.55,82.87,82.87,0,0,0-58.82,76.9c0,.8,0,1.61,0,2.43a82.88,82.88,0,1,0,82.88-82.88Z"/><path class="cls-1" d="M143.88,995.13c-20,0-33.69-13-33.69-36.89s13.64-36.89,33.69-36.89,33.68,13,33.68,36.89S163.92,995.13,143.88,995.13Zm0-68c-16.43,0-27.28,11.16-27.28,31.1s10.85,31,27.38,31,27.28-11.06,27.28-31S160.41,927.14,143.88,927.14Z"/><path class="cls-1" d="M202.47,949.87h.2a22.49,22.49,0,0,1,17.16-7.34c11.57,0,18.18,6.2,18.18,20.77v30.59h-6.2V964.34c0-11.58-4.65-16.23-13.74-16.23a20.81,20.81,0,0,0-15.29,7.13v38.65h-6.31V943.77h6Z"/><path class="cls-1" d="M266.74,993.89h-6.3V920.52h6.3Z"/><path class="cls-1" d="M296.29,934.06h-6.61V926h6.61Zm-.21,59.83h-6.2V943.77h6.2Z"/><path class="cls-1" d="M324.5,949.87h.21a22.47,22.47,0,0,1,17.15-7.34c11.57,0,18.19,6.2,18.19,20.77v30.59h-6.2V964.34c0-11.58-4.65-16.23-13.75-16.23a20.81,20.81,0,0,0-15.29,7.13v38.65h-6.3V943.77h6Z"/><path class="cls-1" d="M401,942.53c13.13,0,20.15,8.17,20.15,24.08v3.72H384.85c.62,12.5,6.61,19.12,18.08,19.12,8.89,0,13.85-4,15.39-5.48l2.48,4.55c-2.06,2.06-7.64,6.61-18.9,6.61-14.37,0-23.46-8.68-23.46-26.66C378.44,951.73,388.36,942.53,401,942.53Zm-16.11,22.53h30.27c-.1-10.95-4.75-16.95-14.36-16.95C392,948.11,385.47,954,384.85,965.06Z"/><path class="cls-1" d="M532,1007.63l-11.78-15.91a35.41,35.41,0,0,1-15.91,3.41c-19.95,0-33.69-13.12-33.69-36.89s13.74-36.89,33.69-36.89S538,934.47,538,958.24c0,13.85-4.65,24.18-12.5,30.28L537,1003.91ZM504.3,927.14C488,927.14,477,938.4,477,958.24s11,31,27.28,31,27.38-11.16,27.38-31S520.73,927.14,504.3,927.14Z"/><path class="cls-1" d="M598.33,993.89h-6.1v-6h-.1c-1.86,2.17-6.61,7.23-17,7.23-11.78,0-18.18-6-18.18-20.77V943.77h6.3v29.56c0,11.57,4.13,16.12,13.64,16.12A19.7,19.7,0,0,0,592,982.32V943.77h6.3Z"/><path class="cls-1" d="M639.56,965.58a97.56,97.56,0,0,1,10,.51v-2.58c0-10.33-3.72-15.4-13-15.4a18.9,18.9,0,0,0-15,6.62l-3-4.24c2.69-3.1,8.37-8,18.6-8,13,0,18.7,7.34,18.7,21.08v30.28h-6V988h-.21c-1.75,2.38-6,7.13-16.22,7.13-10.43,0-15.6-5.89-15.6-14.36C617.86,970.54,625.82,965.58,639.56,965.58Zm-5,24.07c8.89,0,12.81-4,15-6.82V971c-2-.1-5.27-.31-9.61-.31-10.44,0-15.81,3.2-15.81,9.82C624.16,985.93,627.57,989.65,634.6,989.65Z"/><path class="cls-1" d="M684.51,993.89H678.2V920.52h6.31Z"/><path class="cls-1" d="M714.06,934.06h-6.61V926h6.61Zm-.21,59.83h-6.2V943.77h6.2Z"/><path class="cls-1" d="M759.84,949.15H746.3v44.74H740V949.15h-7.13v-5.38H740v-7.44c0-11.78,6.71-16.43,15-16.43a15.54,15.54,0,0,1,4.86.73v5.47a13.35,13.35,0,0,0-4.14-.62c-5.37,0-9.4,2.48-9.4,11.06v7.23h13.54Zm16.32-15.09h-6.61V926h6.61ZM776,993.89h-6.19V943.77H776Z"/><path class="cls-1" d="M833.3,952a19.22,19.22,0,0,0-12.4-3.93c-10,0-19.32,6.1-19.32,20.57,0,14.67,8.06,20.77,18.39,20.77,6.93,0,11-2.07,13.33-3.93l2.07,5.06c-2.89,2.07-7.44,4.55-16.12,4.55-13.74,0-24.08-7.75-24.08-26.25s12.51-26.35,25.22-26.35c8.47,0,12.6,2.48,15.39,4.65Z"/><path class="cls-1" d="M871.43,965.58a98,98,0,0,1,10,.51v-2.58c0-10.33-3.72-15.4-13-15.4a18.94,18.94,0,0,0-15,6.62l-3-4.24c2.69-3.1,8.37-8,18.6-8,13,0,18.7,7.34,18.7,21.08v30.28h-6V988h-.21c-1.76,2.38-6,7.13-16.22,7.13-10.44,0-15.6-5.89-15.6-14.36C849.74,970.54,857.69,965.58,871.43,965.58Zm-5,24.07c8.89,0,12.82-4,15-6.82V971c-2-.1-5.27-.31-9.61-.31-10.44,0-15.81,3.2-15.81,9.82C856,985.93,859.45,989.65,866.47,989.65Z"/><path class="cls-1" d="M932,949.15H918V978c0,9.3,3.51,11,9.09,11a13.93,13.93,0,0,0,4.86-.72v5.37a16.85,16.85,0,0,1-6.1,1c-7.85,0-14-3.21-14-16.12V949.15h-7.23v-5.38h7.23V932.61H918v11.16h14Z"/><path class="cls-1" d="M956.69,934.06h-6.62V926h6.62Zm-.21,59.83h-6.2V943.77h6.2Z"/><path class="cls-1" d="M999.36,995.13c-12.81,0-23.66-8.47-23.66-26.25s10.85-26.35,23.66-26.35,23.77,8.48,23.77,26.35S1012.28,995.13,999.36,995.13Zm0-47c-9.61,0-17.26,6.72-17.26,20.77,0,13.85,7.44,20.57,17.26,20.57s17.36-6.72,17.36-20.57C1016.72,954.83,1009.07,948.11,999.36,948.11Z"/><path class="cls-1" d="M1047.51,949.87h.21a22.47,22.47,0,0,1,17.15-7.34c11.58,0,18.19,6.2,18.19,20.77v30.59h-6.2V964.34c0-11.58-4.65-16.23-13.74-16.23a20.85,20.85,0,0,0-15.3,7.13v38.65h-6.3V943.77h6Z"/><path class="cls-1" d="M1132,952.56a21.37,21.37,0,0,0-13.33-4.45c-6.31,0-10.34,2.48-10.34,6.93,0,5,2.9,7,12.82,10.54s14.57,7.64,14.57,15.39c0,8.68-6.2,14.16-17.15,14.16-9.41,0-14.47-3.51-17.16-5.68l2.58-5.38a21.39,21.39,0,0,0,14.47,5.48c7.34,0,11.06-3.1,11.06-8.06s-2.59-7.54-12.3-11.06-14.88-6.82-14.88-15.08c0-8.06,6.61-12.82,16.23-12.82,8.57,0,13.22,3,15.8,5Z"/></g></g></svg>